<?xml version="1.0" encoding="UTF-8" standalone="no"?>
<!DOCTYPE svg PUBLIC "-//W3C//DTD SVG 1.1//EN"
 "http://www.w3.org/Graphics/SVG/1.1/DTD/svg11.dtd">
<!-- Generated by graphviz version 2.43.0 (0)
 -->
<!-- Title: main Pages: 1 -->
<svg width="271pt" height="212pt"
 viewBox="0.00 0.00 271.00 212.00" xmlns="http://www.w3.org/2000/svg" xmlns:xlink="http://www.w3.org/1999/xlink">

<svg id="main" version="1.1" xmlns="http://www.w3.org/2000/svg" xmlns:xlink="http://www.w3.org/1999/xlink" xml:space="preserve" onload="init(evt)">
<style type="text/css"><![CDATA[
.node, .edge {opacity: 0.7;}
.node.selected, .edge.selected {opacity: 1;}
.edge:hover path { stroke: red; }
.edge:hover polygon { stroke: red; fill: red; }
]]></style>
<script type="application/ecmascript" xlink:href="svg.min.js"/>
<svg id="graph" class="graph">
<g id="graph0" class="graph" transform="scale(1 1) rotate(0) translate(4 208)">
<title>main</title>
<!-- Node1 -->
<g id="Node000001" class="node">
<title>Node1</title>
<g id="a_Node000001"><a xlink:title=" ">
<polygon fill="#999999" stroke="#666666" points="41,-111 0,-111 0,-92 41,-92 41,-111"/>
<text text-anchor="middle" x="20.5" y="-99" font-family="Helvetica,sans-Serif" font-size="10.00">main</text>
</a>
</g>
</g>
<!-- Node2 -->
<g id="Node000002" class="node">
<title>Node2</title>
<g id="a_Node000002"><a xlink:href="motor_8c.html#a849ac541cab3791078dfe5abf4fbb75c" target="_top" xlink:title="Get current motor speed.">
<polygon fill="white" stroke="#666666" points="179,-204 78,-204 78,-185 179,-185 179,-204"/>
<text text-anchor="middle" x="128.5" y="-192" font-family="Helvetica,sans-Serif" font-size="10.00">motor_get_speed</text>
</a>
</g>
</g>
<!-- Node1&#45;&gt;Node2 -->
<g id="edge1_Node000001_Node000002" class="edge">
<title>Node1&#45;&gt;Node2</title>
<g id="a_edge1_Node000001_Node000002"><a xlink:title=" ">
<path fill="none" stroke="#63b8ff" d="M26.25,-111.23C34.47,-127.09 52.8,-158.55 77,-176.5 78.85,-177.87 80.82,-179.15 82.86,-180.34"/>
<polygon fill="#63b8ff" stroke="#63b8ff" points="81.66,-183.65 92.17,-184.97 84.78,-177.38 81.66,-183.65"/>
</a>
</g>
</g>
<!-- Node3 -->
<g id="Node000003" class="node">
<title>Node3</title>
<g id="a_Node000003"><a xlink:href="motor_8c.html#aa2a5af0fb9c1fa2047a5ca0af110f806" target="_top" xlink:title="Initialize motor simulation.">
<polygon fill="white" stroke="#666666" points="162,-167 95,-167 95,-148 162,-148 162,-167"/>
<text text-anchor="middle" x="128.5" y="-155" font-family="Helvetica,sans-Serif" font-size="10.00">motor_init</text>
</a>
</g>
</g>
<!-- Node1&#45;&gt;Node3 -->
<g id="edge2_Node000001_Node000003" class="edge">
<title>Node1&#45;&gt;Node3</title>
<g id="a_edge2_Node000001_Node000003"><a xlink:title=" ">
<path fill="none" stroke="#63b8ff" d="M33.71,-111.23C44.59,-119.55 61.19,-131.44 77,-139.5 80.3,-141.18 83.8,-142.78 87.36,-144.27"/>
<polygon fill="#63b8ff" stroke="#63b8ff" points="86.2,-147.58 96.79,-147.98 88.76,-141.07 86.2,-147.58"/>
</a>
</g>
</g>
<!-- Node4 -->
<g id="Node000004" class="node">
<title>Node4</title>
<g id="a_Node000004"><a xlink:href="motor_8c.html#a62ff061b48d5aa078b435c9b95801be3" target="_top" xlink:title="Set motor control output.">
<polygon fill="white" stroke="#666666" points="180,-130 77,-130 77,-111 180,-111 180,-130"/>
<text text-anchor="middle" x="128.5" y="-118" font-family="Helvetica,sans-Serif" font-size="10.00">motor_set_output</text>
</a>
</g>
</g>
<!-- Node1&#45;&gt;Node4 -->
<g id="edge3_Node000001_Node000004" class="edge">
<title>Node1&#45;&gt;Node4</title>
<g id="a_edge3_Node000001_Node000004"><a xlink:title=" ">
<path fill="none" stroke="#63b8ff" d="M41.44,-105.07C48.84,-106.4 57.67,-107.98 66.81,-109.62"/>
<polygon fill="#63b8ff" stroke="#63b8ff" points="66.34,-113.09 76.8,-111.41 67.57,-106.2 66.34,-113.09"/>
</a>
</g>
</g>
<!-- Node5 -->
<g id="Node000005" class="node">
<title>Node5</title>
<g id="a_Node000005"><a xlink:href="motor_8c.html#ab51ce8445239cd2dd72a1c886bc78d8f" target="_top" xlink:title="Update motor simulation (call periodically)">
<polygon fill="white" stroke="#666666" points="171,-93 86,-93 86,-74 171,-74 171,-93"/>
<text text-anchor="middle" x="128.5" y="-81" font-family="Helvetica,sans-Serif" font-size="10.00">motor_update</text>
</a>
</g>
</g>
<!-- Node1&#45;&gt;Node5 -->
<g id="edge4_Node000001_Node000005" class="edge">
<title>Node1&#45;&gt;Node5</title>
<g id="a_edge4_Node000001_Node000005"><a xlink:title=" ">
<path fill="none" stroke="#63b8ff" d="M41.44,-98.11C51.18,-96.46 63.41,-94.38 75.57,-92.32"/>
<polygon fill="#63b8ff" stroke="#63b8ff" points="76.43,-95.72 85.7,-90.6 75.26,-88.82 76.43,-95.72"/>
</a>
</g>
</g>
<!-- Node6 -->
<g id="Node000006" class="node">
<title>Node6</title>
<g id="a_Node000006"><a xlink:href="pid_8c.html#ace9aeed1847327f037a508004256c5ff" target="_top" xlink:title="Calculate PID control output.">
<polygon fill="white" stroke="#666666" points="168.5,-56 88.5,-56 88.5,-37 168.5,-37 168.5,-56"/>
<text text-anchor="middle" x="128.5" y="-44" font-family="Helvetica,sans-Serif" font-size="10.00">pid_compute</text>
</a>
</g>
</g>
<!-- Node1&#45;&gt;Node6 -->
<g id="edge5_Node000001_Node000006" class="edge">
<title>Node1&#45;&gt;Node6</title>
<g id="a_edge5_Node000001_Node000006"><a xlink:title=" ">
<path fill="none" stroke="#63b8ff" d="M34.7,-91.78C45.65,-84 61.83,-73.16 77,-65.5 81.01,-63.47 85.29,-61.54 89.6,-59.73"/>
<polygon fill="#63b8ff" stroke="#63b8ff" points="90.99,-62.95 98.99,-56 88.41,-56.44 90.99,-62.95"/>
</a>
</g>
</g>
<!-- Node8 -->
<g id="Node000008" class="node">
<title>Node8</title>
<g id="a_Node000008"><a xlink:href="pid_8c.html#a7ca66adb6f7af4251e435544603136d7" target="_top" xlink:title="Initialize PID controller with standard configuration.">
<polygon fill="white" stroke="#666666" points="155,-19 102,-19 102,0 155,0 155,-19"/>
<text text-anchor="middle" x="128.5" y="-7" font-family="Helvetica,sans-Serif" font-size="10.00">pid_init</text>
</a>
</g>
</g>
<!-- Node1&#45;&gt;Node8 -->
<g id="edge7_Node000001_Node000008" class="edge">
<title>Node1&#45;&gt;Node8</title>
<g id="a_edge7_Node000001_Node000008"><a xlink:title=" ">
<path fill="none" stroke="#63b8ff" d="M26.63,-91.58C35.11,-76.06 53.51,-46 77,-28.5 81.6,-25.07 86.89,-22.2 92.28,-19.81"/>
<polygon fill="#63b8ff" stroke="#63b8ff" points="93.92,-22.92 101.95,-16.01 91.36,-16.41 93.92,-22.92"/>
</a>
</g>
</g>
<!-- Node7 -->
<g id="Node000007" class="node">
<title>Node7</title>
<g id="a_Node000007"><a xlink:href="pid_8c.html#a3677975a17489e728e5be5d03a864bab" target="_top" xlink:title=" ">
<polygon fill="white" stroke="#666666" points="263,-56 216,-56 216,-37 263,-37 263,-56"/>
<text text-anchor="middle" x="239.5" y="-44" font-family="Helvetica,sans-Serif" font-size="10.00">clamp</text>
</a>
</g>
</g>
<!-- Node6&#45;&gt;Node7 -->
<g id="edge6_Node000006_Node000007" class="edge">
<title>Node6&#45;&gt;Node7</title>
<g id="a_edge6_Node000006_Node000007"><a xlink:title=" ">
<path fill="none" stroke="#63b8ff" d="M168.54,-46.5C180.7,-46.5 193.98,-46.5 205.67,-46.5"/>
<polygon fill="#63b8ff" stroke="#63b8ff" points="205.88,-50 215.88,-46.5 205.88,-43 205.88,-50"/>
</a>
</g>
</g>
</g>
</svg>
</svg>

<style type='text/css'>
<![CDATA[
[data-mouse-over-selected='false'] { opacity: 0.7; }
[data-mouse-over-selected='true']  { opacity: 1.0; }
]]>
</style>
<script type="application/ecmascript"><![CDATA[
document.addEventListener('DOMContentLoaded', (event) => {
  highlightEdges();
  highlightAdjacentNodes();
});
]]></script>
</svg>
