<?xml version="1.0" encoding="UTF-8" standalone="no"?>
<!DOCTYPE svg PUBLIC "-//W3C//DTD SVG 1.1//EN"
 "http://www.w3.org/Graphics/SVG/1.1/DTD/svg11.dtd">
<!-- Generated by graphviz version 2.43.0 (0)
 -->
<!-- Title: firmware/include/motor.h Pages: 1 -->
<svg width="256pt" height="82pt"
 viewBox="0.00 0.00 256.00 82.00" xmlns="http://www.w3.org/2000/svg" xmlns:xlink="http://www.w3.org/1999/xlink">
<g id="graph0" class="graph" transform="scale(1 1) rotate(0) translate(4 78)">
<title>firmware/include/motor.h</title>
<!-- Node1 -->
<g id="Node000001" class="node">
<title>Node1</title>
<g id="a_Node000001"><a xlink:title="Simple DC motor simulation for testing PID control.">
<polygon fill="#999999" stroke="#666666" points="192,-74 53,-74 53,-55 192,-55 192,-74"/>
<text text-anchor="middle" x="122.5" y="-62" font-family="Helvetica,sans-Serif" font-size="10.00">firmware/include/motor.h</text>
</a>
</g>
</g>
<!-- Node2 -->
<g id="Node000002" class="node">
<title>Node2</title>
<g id="a_Node000002"><a xlink:href="main_8c.html" target="_top" xlink:title="PID motor controller demo application.">
<polygon fill="white" stroke="#666666" points="113,-19 0,-19 0,0 113,0 113,-19"/>
<text text-anchor="middle" x="56.5" y="-7" font-family="Helvetica,sans-Serif" font-size="10.00">firmware/src/main.c</text>
</a>
</g>
</g>
<!-- Node1&#45;&gt;Node2 -->
<g id="edge1_Node000001_Node000002" class="edge">
<title>Node1&#45;&gt;Node2</title>
<g id="a_edge1_Node000001_Node000002"><a xlink:title=" ">
<path fill="none" stroke="#63b8ff" d="M103.95,-48.6C92.12,-39.11 77.21,-27.13 67.3,-19.17"/>
<polygon fill="#63b8ff" stroke="#63b8ff" points="101.91,-51.45 111.9,-54.98 106.29,-45.99 101.91,-51.45"/>
</a>
</g>
</g>
<!-- Node3 -->
<g id="Node000003" class="node">
<title>Node3</title>
<g id="a_Node000003"><a xlink:href="motor_8c.html" target="_top" xlink:title="Simple first&#45;order DC motor simulation model.">
<polygon fill="white" stroke="#666666" points="248,-19 131,-19 131,0 248,0 248,-19"/>
<text text-anchor="middle" x="189.5" y="-7" font-family="Helvetica,sans-Serif" font-size="10.00">firmware/src/motor.c</text>
</a>
</g>
</g>
<!-- Node1&#45;&gt;Node3 -->
<g id="edge2_Node000001_Node000003" class="edge">
<title>Node1&#45;&gt;Node3</title>
<g id="a_edge2_Node000001_Node000003"><a xlink:title=" ">
<path fill="none" stroke="#63b8ff" d="M141.33,-48.6C153.34,-39.11 168.47,-27.13 178.54,-19.17"/>
<polygon fill="#63b8ff" stroke="#63b8ff" points="138.94,-46.04 133.26,-54.98 143.28,-51.53 138.94,-46.04"/>
</a>
</g>
</g>
</g>
</svg>
