<?xml version="1.0" encoding="UTF-8" standalone="no"?>
<!DOCTYPE svg PUBLIC "-//W3C//DTD SVG 1.1//EN"
 "http://www.w3.org/Graphics/SVG/1.1/DTD/svg11.dtd">
<!-- Generated by graphviz version 2.43.0 (0)
 -->
<!-- Title: clamp Pages: 1 -->
<svg width="273pt" height="64pt"
 viewBox="0.00 0.00 273.00 64.00" xmlns="http://www.w3.org/2000/svg" xmlns:xlink="http://www.w3.org/1999/xlink">

<svg id="main" version="1.1" xmlns="http://www.w3.org/2000/svg" xmlns:xlink="http://www.w3.org/1999/xlink" xml:space="preserve" onload="init(evt)">
<style type="text/css"><![CDATA[
.node, .edge {opacity: 0.7;}
.node.selected, .edge.selected {opacity: 1;}
.edge:hover path { stroke: red; }
.edge:hover polygon { stroke: red; fill: red; }
]]></style>
<script type="application/ecmascript" xlink:href="svg.min.js"/>
<svg id="graph" class="graph">
<g id="graph0" class="graph" transform="scale(1 1) rotate(0) translate(4 60)">
<title>clamp</title>
<!-- Node1 -->
<g id="Node000001" class="node">
<title>Node1</title>
<g id="a_Node000001"><a xlink:title=" ">
<polygon fill="#999999" stroke="#666666" points="265,-37 218,-37 218,-18 265,-18 265,-37"/>
<text text-anchor="middle" x="241.5" y="-25" font-family="Helvetica,sans-Serif" font-size="10.00">clamp</text>
</a>
</g>
</g>
<!-- Node2 -->
<g id="Node000002" class="node">
<title>Node2</title>
<g id="a_Node000002"><a xlink:href="pid_8c.html#ace9aeed1847327f037a508004256c5ff" target="_top" xlink:title="Calculate PID control output.">
<polygon fill="white" stroke="#666666" points="169.5,-56 89.5,-56 89.5,-37 169.5,-37 169.5,-56"/>
<text text-anchor="middle" x="129.5" y="-44" font-family="Helvetica,sans-Serif" font-size="10.00">pid_compute</text>
</a>
</g>
</g>
<!-- Node1&#45;&gt;Node2 -->
<g id="edge1_Node000001_Node000002" class="edge">
<title>Node1&#45;&gt;Node2</title>
<g id="a_edge1_Node000001_Node000002"><a xlink:title=" ">
<path fill="none" stroke="#63b8ff" d="M207.99,-33.12C196.05,-35.18 182.39,-37.54 169.91,-39.69"/>
<polygon fill="#63b8ff" stroke="#63b8ff" points="208.72,-36.54 217.97,-31.39 207.52,-29.64 208.72,-36.54"/>
</a>
</g>
</g>
<!-- Node4 -->
<g id="Node000004" class="node">
<title>Node4</title>
<g id="a_Node000004"><a xlink:href="pid_8c.html#a6cc4ce0411d2b8f56ec3f7b260647719" target="_top" xlink:title="Initialize PID controller with advanced options.">
<polygon fill="white" stroke="#666666" points="182,-19 77,-19 77,0 182,0 182,-19"/>
<text text-anchor="middle" x="129.5" y="-7" font-family="Helvetica,sans-Serif" font-size="10.00">pid_init_advanced</text>
</a>
</g>
</g>
<!-- Node1&#45;&gt;Node4 -->
<g id="edge3_Node000001_Node000004" class="edge">
<title>Node1&#45;&gt;Node4</title>
<g id="a_edge3_Node000001_Node000004"><a xlink:title=" ">
<path fill="none" stroke="#63b8ff" d="M207.84,-22.15C199.72,-20.83 190.83,-19.37 182.06,-17.94"/>
<polygon fill="#63b8ff" stroke="#63b8ff" points="207.54,-25.65 217.97,-23.81 208.67,-18.74 207.54,-25.65"/>
</a>
</g>
</g>
<!-- Node3 -->
<g id="Node000003" class="node">
<title>Node3</title>
<g id="a_Node000003"><a xlink:href="main_8c.html#a840291bc02cba5474a4cb46a9b9566fe" target="_top" xlink:title=" ">
<polygon fill="white" stroke="#666666" points="41,-56 0,-56 0,-37 41,-37 41,-56"/>
<text text-anchor="middle" x="20.5" y="-44" font-family="Helvetica,sans-Serif" font-size="10.00">main</text>
</a>
</g>
</g>
<!-- Node2&#45;&gt;Node3 -->
<g id="edge2_Node000002_Node000003" class="edge">
<title>Node2&#45;&gt;Node3</title>
<g id="a_edge2_Node000002_Node000003"><a xlink:title=" ">
<path fill="none" stroke="#63b8ff" d="M79.13,-46.5C65.7,-46.5 51.93,-46.5 41.22,-46.5"/>
<polygon fill="#63b8ff" stroke="#63b8ff" points="79.26,-50 89.26,-46.5 79.26,-43 79.26,-50"/>
</a>
</g>
</g>
</g>
</svg>
</svg>

<style type='text/css'>
<![CDATA[
[data-mouse-over-selected='false'] { opacity: 0.7; }
[data-mouse-over-selected='true']  { opacity: 1.0; }
]]>
</style>
<script type="application/ecmascript"><![CDATA[
document.addEventListener('DOMContentLoaded', (event) => {
  highlightEdges();
  highlightAdjacentNodes();
});
]]></script>
</svg>
